<?xml version="1.0" encoding="UTF-8" standalone="no"?>
<svg
   width="100"
   height="100"
   viewBox="0 0 300 300"
   version="1.1"
   id="svg26"
   sodipodi:docname="myqrwallet.svg"
   inkscape:version="1.1 (c68e22c387, 2021-05-23)"
   xmlns:inkscape="http://www.inkscape.org/namespaces/inkscape"
   xmlns:sodipodi="http://sodipodi.sourceforge.net/DTD/sodipodi-0.dtd"
   xmlns="http://www.w3.org/2000/svg"
   xmlns:svg="http://www.w3.org/2000/svg"
   xmlns:rdf="http://www.w3.org/1999/02/22-rdf-syntax-ns#"
   xmlns:cc="http://creativecommons.org/ns#"
   xmlns:dc="http://purl.org/dc/elements/1.1/">
  <defs
     id="defs30" />
  <sodipodi:namedview
     id="namedview28"
     pagecolor="#ffffff"
     bordercolor="#666666"
     borderopacity="1.0"
     inkscape:pageshadow="2"
     inkscape:pageopacity="0.0"
     inkscape:pagecheckerboard="0"
     showgrid="false"
     inkscape:zoom="8.24"
     inkscape:cx="47.633495"
     inkscape:cy="46.783981"
     inkscape:window-width="1920"
     inkscape:window-height="1057"
     inkscape:window-x="-8"
     inkscape:window-y="-8"
     inkscape:window-maximized="1"
     inkscape:current-layer="svg26" />
  <title
     id="title2">wallet - clipart</title>
  <style
     type="text/css"
     id="style4">
  .a{
    fill:beige;
  }
  .b{
    fill:#333;
  }
  .c{
    fill:saddlebrown;
  }
</style>
  <path
     d="M274 119V64c0-10-8-18-18-18H18C8 46 0 54 0 64v155c0 10 8 18 18 18h237c10 0 18-8 18-18v-55c10 0 18-8 18-18v-9C292 127 284 119 274 119z"
     fill="#A66333"
     id="path6"
     style="fill:#005600;fill-opacity:1" />
  <path
     d="M46 0h182c10 0 18 8 18 18v128c0 10-8 18-18 18H46c-10 0-18-8-18-18V18C27 8 36 0 46 0z"
     class="a"
     id="path8" />
  <path
     d="M228 0H46C36 0 27 8 27 18v9h219v-9C246 8 238 0 228 0z"
     class="b"
     id="path16" />
  <path
     d="m 57.946606,175.11483 v -18.88031 h 37.760629 v 37.76063 H 57.946606 Z m 32.366253,0 V 161.62889 H 63.340982 v 26.97188 h 26.971877 z m -21.577502,0 v -8.09156 h 16.183127 v 16.18312 H 68.735357 Z m 37.760633,16.18313 v -2.69719 h -5.39438 v -10.78875 h 5.39438 v -16.18313 h 5.39437 v -5.39437 h -10.78875 v -5.39438 H 79.524108 v -5.39437 h 5.394376 v -5.39438 H 74.129733 v 10.78875 h -5.394376 v -5.39437 H 57.946606 v -5.39438 h 10.788751 v -10.78875 h -5.394375 v 5.39437 h -5.394376 v -10.78875 h 10.788751 v 5.39438 h 5.394376 v 5.39437 h 5.394375 v -5.39437 h 5.394376 v 5.39437 h 10.788751 v -5.39437 h -5.394376 v -5.39438 H 74.129733 v -5.39437 h 16.183126 v -5.39438 H 74.129733 v -5.39437 h -5.394376 v 5.39437 H 57.946606 V 96.896386 h 5.394376 v 5.394374 H 95.707235 V 96.896386 H 90.312859 V 91.50201 H 79.524108 v 5.394376 H 74.129733 V 91.50201 H 63.340982 V 80.713258 H 74.129733 V 91.50201 h 5.394375 v -5.394377 h 10.788751 v -5.394375 h 5.394376 v 5.394375 h -5.394376 v 5.394377 h 5.394376 v 5.394376 h 5.394375 V 86.107633 h 5.39438 v -5.394375 h -5.39438 V 64.530131 h 10.78875 v 5.394376 h 5.39437 v 5.394375 h -5.39437 v 5.394376 h 5.39437 v 32.366252 h -10.78874 v -5.39437 h -5.39438 v 5.39437 h -5.394375 v 5.39438 h -5.394376 v 5.39437 h 5.394376 v 5.39438 h 5.394375 v 5.39437 h 10.78875 v -5.39437 h -5.39437 v -5.39438 h -5.39438 v -5.39437 h 10.78875 v 10.78875 h 5.39437 v -10.78875 h 5.39438 v 10.78875 h 5.39438 v -16.18313 h 5.39437 v -5.39437 h 5.39438 v 5.39437 h -5.39438 v 5.39438 h 5.39438 v 5.39437 h 16.18312 v -5.39437 h -5.39437 v -5.39438 h -5.39438 v -10.78875 h -5.39437 v -5.394374 h 5.39437 V 91.50201 h 5.39438 v -5.394377 h -5.39438 v -5.394375 h -5.39437 V 91.50201 h -5.39438 v -5.394377 h -5.39437 v 5.394377 h -5.39438 v -5.394377 h 5.39438 v -5.394375 h -5.39438 V 64.530131 h -5.39438 v -5.394376 h 5.39438 v 5.394376 h 5.39438 V 42.952629 h 5.39437 V 53.74138 h 10.78875 v -5.394376 h -5.39437 V 37.558253 h 10.78875 v 5.394376 h -5.39438 v 5.394375 h 10.78875 v -5.394375 h 5.39438 v -5.394376 h 10.78875 V 53.74138 h -10.78875 v -5.394376 h -5.39438 v 10.788751 h 5.39438 v 16.183127 h 5.39437 v -5.394375 h 5.39438 v 26.971879 h 10.78875 V 91.50201 h -5.39437 V 80.713258 h 10.78875 v 16.183128 h 10.78875 V 91.50201 h -5.39438 V 80.713258 h 5.39438 V 91.50201 h 5.39437 v -5.394377 h 10.78876 v 10.788753 h -5.39438 V 91.50201 h -5.39438 v 5.394376 h -5.39437 v 16.183124 h 5.39437 v 5.39438 h -5.39437 v 5.39437 h -10.78875 v 5.39438 h -5.39438 v 5.39437 h -10.78875 v -5.39437 h -5.39438 v -5.39438 h -5.39437 v 10.78875 h 5.39437 v 5.39438 h 16.18313 v 5.39438 h 10.78875 v -5.39438 h -5.39437 v -5.39438 h 5.39437 v -5.39437 h 5.39438 v 5.39437 h 5.39437 v 5.39438 h 5.39438 v -10.78875 h -5.39438 v -5.39438 h 10.78876 v 16.18313 h -5.39438 v 10.78875 h 5.39438 v 10.78875 h -5.39438 v 16.18313 h 5.39438 v 5.39437 h -16.18313 v 10.78876 h -16.18313 v -5.39438 h 10.78875 v -5.39438 h -10.78875 v -10.78875 h -5.39437 v 10.78875 h -5.39438 v 5.39438 h 5.39438 v 5.39438 h -10.78876 v -16.18313 h -5.39437 v 10.78875 h -5.39438 v -5.39438 h -5.39437 v -21.5775 h 5.39437 v 16.18313 h 5.39438 v -16.18313 h 5.39437 v -10.78875 h -5.39437 v -5.39437 h -5.39438 v -5.39438 h 5.39438 v -5.39438 h -5.39438 v -5.39437 h -5.39437 v 21.5775 h 5.39437 v 5.39438 h -10.78875 v 10.78875 h -5.39437 v 10.78875 h 5.39437 v 5.39437 h -5.39437 v 5.39438 h 10.78875 v 5.39438 h -10.78875 v -5.39438 h -5.39438 v -5.39438 h -5.39437 v 10.78876 h -21.5775 z m 16.18312,-8.09157 v -5.39437 h 5.39438 v -16.18313 h -10.78876 v 5.39438 h 5.39438 v 5.39437 h -10.78875 v 5.39438 h -5.39437 v 5.39437 h 5.39437 v 5.39438 h 10.78875 z m 75.52126,-5.39437 v -5.39438 h 5.39437 v -10.78875 h 5.39438 v -5.39437 h -5.39438 v -16.18313 h -5.39437 v 16.18313 h 5.39437 v 5.39437 h -5.39437 v 5.39438 h -5.39438 v 16.18312 h 5.39438 z m -26.97188,-2.69719 v -2.69719 h -5.39438 v 5.39438 h 5.39438 z m -32.36625,-10.78875 v -2.69719 h -5.39438 v 5.39438 h 5.39438 z m 48.54938,-5.39438 v -8.09156 h -16.18313 v 16.18313 h 16.18313 z m -10.78875,0 v -2.69718 h 5.39437 v 5.39437 h -5.39437 z m -43.15501,-5.39437 v -2.69719 h 10.78875 v -5.39437 h -10.78875 v -5.39438 h -5.39437 v 5.39438 h 5.39437 v 5.39437 h -10.78875 v -5.39437 h -5.39438 v 5.39437 h -5.39437 v -5.39437 h -5.39437 v -5.39438 h -5.39438 v -5.39438 h -5.394375 v 5.39438 h -5.394376 v 5.39438 h 5.394376 v -5.39438 h 5.394375 v 5.39438 h 5.39438 v 5.39437 h 5.39437 v 5.39438 h 21.5775 z M 117.28473,137.3542 v -2.69719 h -5.39437 v 5.39438 h 5.39437 z m 26.97188,-2.69719 v -5.39437 h -10.78875 v 5.39437 h 5.39438 v 5.39438 h 5.39437 z m 32.36626,-8.09156 v -2.69719 h -5.39438 v 5.39438 h 5.39438 z m 10.78875,-5.39437 v -2.69719 h 5.39437 v -16.18313 h -5.39437 v 5.39438 h -5.39438 v 5.39437 h -5.39437 v -5.39437 h -10.78876 v -5.39438 h -5.39437 v -5.394374 h 5.39437 V 80.713258 h -5.39437 v -5.394376 h -5.39438 v -5.394375 h -5.39437 v 5.394375 h -5.39438 V 59.135755 h 5.39438 v 5.394376 h 5.39437 v -5.394376 h -5.39437 V 53.74138 h -5.39438 v 5.394375 h -5.39437 v 16.183127 h 5.39437 v 5.394376 h 5.39438 v -5.394376 h 5.39437 V 91.50201 h -5.39437 v 5.394376 h -5.39438 v 5.394374 h 5.39438 v 10.78875 h 5.39437 v -5.39437 h 10.78875 v 5.39437 h 5.39438 v 5.39438 h 10.78875 v 5.39437 h 5.39438 z m -5.39438,-5.39438 v -2.69719 h 5.39438 v 5.39438 h -5.39438 z m -86.310005,-5.39438 v -2.69718 h 5.394375 v -5.39438 h -5.394375 v 5.39438 h -5.394376 v 5.39437 h 5.394376 z M 111.89036,99.593574 v -2.697188 h -5.39437 v 5.394374 h 5.39437 z m 0,-26.97188 v -2.697187 h -5.39437 v 5.394375 h 5.39437 z m 21.5775,-2.697187 v -5.394376 h -5.39437 v 10.788751 h 5.39437 z m 32.36625,-24.274691 v -2.697187 h -5.39437 v 5.394375 h 5.39437 z m 43.15501,145.648144 v -2.69719 h 5.39438 v 5.39438 h -5.39438 z m 0,-78.21845 v -5.39437 h -5.39438 v -5.39438 h 5.39438 v 5.39438 h 5.39438 v 10.78875 h -5.39438 z M 57.946606,56.438568 V 37.558253 H 95.707235 V 75.318882 H 57.946606 Z m 32.366253,0 V 42.952629 H 63.340982 v 26.971878 h 26.971877 z m -21.577502,0 V 48.347004 H 84.918484 V 64.530131 H 68.735357 Z m 107.887513,0 V 37.558253 h 37.76063 v 37.760629 h -37.76063 z m 32.36625,0 V 42.952629 h -26.97188 v 26.971878 h 26.97188 z m -21.5775,0 v -8.091564 h 16.18312 v 16.183127 h -16.18312 z m -86.31001,0 V 53.74138 h 5.39438 v 5.394375 h -5.39438 z m 10.78875,-5.394376 v -2.697188 h -5.39437 V 37.558253 h 5.39437 v 5.394376 h 5.39437 v -5.394376 h 5.39438 v 5.394376 h -5.39438 V 53.74138 h -5.39437 z"
     id="path2"
     style="stroke-width:0.674296" />
  <path
     d="M18 73l201 27c10 0 18 8 18 18v155c0 10-8 18-18 18L18 264C8 264 0 256 0 246V55C0 65 8 73 18 73z"
     fill="#F4B459"
     id="path18"
     style="fill:#009400;fill-opacity:1" />
  <path
     d="M196 164c8 0 14 6 14 14s-6 14-14 14 -14-6-14-14S188 164 196 164z"
     class="a"
     id="path20" />
  <path
     d="M18 264l201 27c10 0 18-8 18-18v-36L18 210C8 210 0 202 0 191v55C0 256 8 264 18 264z"
     class="c"
     id="path22"
     style="fill:#002d00;fill-opacity:1" />
  <path
     d="M246 155c0 0 46-10 46-18v27c0 0-8 18-18 18l-27 9c-10 0-18-8-18-18C228 163 236 155 246 155z"
     class="c"
     id="path24"
     style="fill:#002d00;fill-opacity:1" />
  <metadata
     id="metadata32">
    <rdf:RDF>
      <cc:Work
         rdf:about="">
        <dc:title>wallet - clipart</dc:title>
      </cc:Work>
    </rdf:RDF>
  </metadata>
</svg>
